<svg width="18px" height="18px" viewBox="0 0 18 18" version="1.1" xmlns="http://www.w3.org/2000/svg" xmlns:xlink="http://www.w3.org/1999/xlink">
    <!-- Generator: Sketch 50.2 (55047) - http://www.bohemiancoding.com/sketch -->
    <desc>Created with Sketch.</desc>
    <defs></defs>
    <g id="Symbols" stroke="none" stroke-width="1" fill="none" fill-rule="evenodd">
        <g id="Navigation-v2" transform="translate(-186.000000, -23.000000)">
            <g id="Home" transform="translate(183.000000, 20.000000)">
                <g id="baseline-inbox-24px">
                    <path d="M19,3 L4.99,3 C3.88,3 3.01,3.89 3.01,5 L3,19 C3,20.1 3.88,21 4.99,21 L19,21 C20.1,21 21,20.1 21,19 L21,5 C21,3.89 20.1,3 19,3 Z M19,15 L15,15 C15,16.66 13.65,18 12,18 C10.35,18 9,16.66 9,15 L4.99,15 L4.99,5 L19,5 L19,15 Z" id="Shape" fill="#4A4A4A" fill-rule="nonzero"></path>
                    <polygon id="Shape" points="0 0 24 0 24 24 0 24"></polygon>
                </g>
            </g>
        </g>
    </g>
</svg>